HIERARCHY
ROOT Hips
{
	OFFSET 0.000000 0.000000 0.000000 
	CHANNELS 6 Xposition Yposition Zposition Zrotation Yrotation Xrotation
	JOINT LeftUpLeg
	{
		OFFSET 1.363060 -1.794630 0.839290 
		CHANNELS 3 Zrotation Yrotation Xrotation
		JOINT LeftLeg
		{
			OFFSET 2.448110 -6.726130 0.000000 
			CHANNELS 3 Zrotation Yrotation Xrotation
			JOINT LeftFoot
			{
				OFFSET 2.562200 -7.039590 0.000000 
				CHANNELS 3 Zrotation Yrotation Xrotation
				JOINT LeftToeBase
				{
					OFFSET 0.157640 -0.433110 2.322550 
					CHANNELS 3 Zrotation Yrotation Xrotation
					End Site
					{
						OFFSET 0.000000 0.000000 0.000000 
					}
				}
			}
		}
	}
	JOINT RightUpLeg
	{
		OFFSET -1.305520 -1.794630 0.839290 
		CHANNELS 3 Zrotation Yrotation Xrotation
		JOINT RightLeg
		{
			OFFSET -2.542530 -6.985550 0.000000 
			CHANNELS 3 Zrotation Yrotation Xrotation
			JOINT RightFoot
			{
				OFFSET -2.568260 -7.056230 0.000000 
				CHANNELS 3 Zrotation Yrotation Xrotation
				JOINT RightToeBase
				{
					OFFSET -0.164730 -0.452590 2.363150 
					CHANNELS 3 Zrotation Yrotation Xrotation
					End Site
					{
						OFFSET 0.000000 0.000000 0.000000 
					}
				}
			}
		}
	}
	JOINT Spine
	{
		OFFSET 0.028270 2.035590 -0.193380 
		CHANNELS 3 Zrotation Yrotation Xrotation
		JOINT Spine1
		{
			OFFSET 0.056720 2.048850 -0.042750 
			CHANNELS 3 Zrotation Yrotation Xrotation
			JOINT Neck1
			{
				OFFSET -0.054170 1.746240 0.172020 
				CHANNELS 3 Zrotation Yrotation Xrotation
				JOINT Head
				{
					OFFSET 0.104070 1.761360 -0.123970 
					CHANNELS 3 Zrotation Yrotation Xrotation
					End Site
					{
						OFFSET 0.000000 0.000000 0.000000 
					}
				}
			}
			JOINT LeftArm
			{
				OFFSET 3.362410 1.200890 -0.311210 
				CHANNELS 3 Zrotation Yrotation Xrotation
				JOINT LeftForeArm
				{
					OFFSET 4.983000 -0.000000 -0.000000 
					CHANNELS 3 Zrotation Yrotation Xrotation
					JOINT LeftHand
					{
						OFFSET 3.483560 -0.000000 -0.000000 
						CHANNELS 3 Zrotation Yrotation Xrotation
						JOINT LeftHandIndex1
						{
							OFFSET 0.715260 -0.000000 -0.000000 
							CHANNELS 3 Zrotation Yrotation Xrotation
							End Site
							{
								OFFSET 0.000000 0.000000 0.000000 
							}
						}
					}
				}
			}
			JOINT RightArm
			{
				OFFSET -3.136600 1.374050 -0.404650 
				CHANNELS 3 Zrotation Yrotation Xrotation
				JOINT RightForeArm
				{
					OFFSET -5.241900 -0.000000 -0.000000 
					CHANNELS 3 Zrotation Yrotation Xrotation
					JOINT RightHand
					{
						OFFSET -3.444170 -0.000000 -0.000000 
						CHANNELS 3 Zrotation Yrotation Xrotation
						JOINT RightHandIndex1
						{
							OFFSET -0.622530 -0.000000 -0.000000 
							CHANNELS 3 Zrotation Yrotation Xrotation
							End Site
							{
								OFFSET 0.000000 0.000000 0.000000 
							}
						}
					}
				}
			}
		}
	}
}
MOTION
Frames: 16
Frame Time: 0.041667
-0.776616 18.141300 20.495412 -176.304728 6.010488 -154.072852 -35.486593 -27.416519 -22.502515 3.867484 12.145577 32.221123 3.251404 -7.276753 -45.554933 3.266300 -11.114200 -32.666000 29.296767 23.798671 -56.159425 -9.702183 -22.668791 63.278772 -3.229115 2.396263 -41.889352 -3.930000 12.066600 -35.968100 2.401628 -2.406697 -4.124655 1.038656 -1.989649 17.374563 9.689420 -0.413186 14.113717 1.555900 0.514000 3.150200 -95.300825 -0.956465 16.046859 19.331963 -20.448602 -3.136227 -0.285543 0.323437 1.608395 -7.125000 0.000000 0.000000 99.697852 -5.807852 15.138030 -26.683279 37.087555 -8.303775 0.082686 -0.395719 -10.036561 7.125000 0.000000 0.000000 
-0.755004 18.137019 20.463911 -176.086676 5.900793 -154.187026 -35.166715 -27.362029 -22.407561 3.910210 12.234564 32.623949 3.189850 -7.640047 -45.760485 2.977600 -10.658700 -31.137200 28.322479 23.772786 -57.070780 -9.640386 -22.677490 63.099803 -3.243246 2.228305 -41.897429 -3.637700 11.662100 -34.546800 2.482722 -2.468925 -4.115527 1.073928 -2.022505 17.440039 10.194667 -0.377329 14.327998 1.685700 0.569500 3.188600 -95.095742 -0.908878 16.143475 19.441123 -20.598744 -3.179437 -0.284042 0.319455 1.273095 -7.125000 0.000000 0.000000 99.641170 -5.867213 14.996919 -26.529974 36.917681 -8.211220 0.087153 -0.402835 -10.068669 7.125000 0.000000 0.000000 
-0.735533 18.129373 20.420992 -175.788606 5.843470 -154.296191 -34.865558 -27.178042 -22.207269 3.956192 12.290658 32.925946 3.179297 -7.833398 -45.955606 2.882000 -10.501500 -30.616500 27.527516 23.627646 -57.809596 -9.508657 -22.631216 62.654464 -3.253561 1.969222 -41.843632 -3.581300 11.581400 -34.266800 2.547627 -2.460620 -4.181193 1.045263 -2.006910 17.512329 10.784322 -0.490908 14.659568 1.815500 0.566200 3.226500 -94.891808 -0.713214 16.352650 19.603649 -20.819876 -3.249241 -0.279347 0.319949 1.176338 -7.125000 0.000000 0.000000 99.633118 -6.108534 14.872317 -26.441250 36.808925 -8.157569 0.090800 -0.406906 -9.977284 7.125000 0.000000 0.000000 
-0.711983 18.121523 20.393467 -175.587831 5.555537 -154.250540 -34.402584 -27.205290 -22.412875 4.002515 12.424627 33.348157 3.112227 -8.011655 -45.941664 2.948900 -10.611800 -30.981600 26.566166 23.388847 -58.777930 -9.411536 -22.622417 62.274575 -3.326308 1.261761 -41.770845 -3.574200 11.571100 -34.231000 2.601484 -2.554073 -4.351783 1.052442 -2.042403 17.413964 11.193422 -0.651401 14.968893 1.898800 0.530100 3.280200 -94.609679 -0.525440 16.591263 19.767601 -21.035829 -3.317251 -0.271529 0.313584 1.114212 -7.125000 0.000000 0.000000 99.691481 -6.376747 14.764014 -26.391780 36.752939 -8.130236 0.089455 -0.405739 -9.770651 7.125000 0.000000 0.000000 
-0.687109 18.111532 20.366656 -175.452980 5.358821 -154.276454 -34.111853 -27.132851 -22.459092 4.041802 12.514218 33.651549 3.115129 -8.067852 -46.043933 3.063900 -10.797700 -31.600700 25.417820 23.277420 -59.727219 -9.307436 -22.600040 61.836434 -3.367034 0.349816 -41.332614 -3.543400 11.526700 -34.077400 2.655536 -2.613180 -4.442445 1.170669 -2.081021 17.343373 11.231186 -0.790609 14.994851 1.895600 0.464000 3.290000 -94.341516 -0.500121 16.818725 19.872019 -21.168938 -3.359776 -0.281103 0.318733 0.988932 -7.125000 0.000000 0.000000 99.716656 -6.578150 14.524424 -26.324092 36.683311 -8.090825 0.089772 -0.407450 -9.674733 7.125000 0.000000 0.000000 
-0.662540 18.099809 20.324756 -175.208490 5.202123 -154.563172 -33.984473 -26.925880 -21.981421 4.086230 12.513760 33.786996 3.205625 -7.981581 -46.276735 3.166900 -10.960500 -32.146800 24.489805 23.120130 -60.194821 -9.132378 -22.490825 61.202126 -3.287040 0.105596 -40.747002 -3.019500 10.726500 -31.362900 2.713460 -2.631514 -4.364273 1.240833 -2.092730 17.308877 11.139740 -0.913445 15.065747 1.852800 0.405800 3.320900 -94.076331 -0.509200 17.094337 19.990535 -21.327491 -3.409741 -0.282451 0.315649 0.743293 -7.125000 0.000000 0.000000 99.706006 -6.827318 14.334455 -26.321030 36.680228 -8.087943 0.092424 -0.410963 -9.768836 7.125000 0.000000 0.000000 
-0.631651 18.090328 20.290707 -174.890899 4.991151 -154.693022 -33.503528 -26.646985 -21.993953 4.144508 12.621763 34.257267 3.126487 -8.355286 -46.428511 3.194700 -11.003800 -32.292800 23.589324 23.051786 -60.772466 -8.910011 -22.357581 60.452100 -3.169507 0.144258 -40.170711 -2.376400 9.609600 -27.721500 2.834773 -2.693663 -4.427393 1.308934 -2.123436 17.175883 11.353040 -0.988496 15.325975 1.903800 0.398900 3.376400 -93.815346 -0.424045 17.360311 20.148173 -21.539873 -3.477792 -0.283485 0.313730 0.425886 -7.125000 0.000000 0.000000 99.641167 -7.122015 14.415317 -26.307238 36.652053 -8.077731 0.093812 -0.412286 -9.740720 7.125000 0.000000 0.000000 
-0.603004 18.085333 20.265628 -174.614593 4.714345 -154.790410 -32.938172 -26.595840 -22.193559 4.213783 12.808879 34.907267 3.066211 -8.661006 -46.594645 3.224500 -11.050000 -32.448500 22.575431 23.001621 -61.381586 -8.686888 -22.222103 59.612859 -3.130959 -0.459155 -39.433748 -2.174700 9.220800 -26.488600 2.943469 -2.799150 -4.557257 1.351336 -2.167685 16.936825 11.787981 -1.083543 15.624961 2.015100 0.394700 3.422400 -93.543174 -0.292396 17.590046 20.298933 -21.739836 -3.543030 -0.288426 0.319889 0.180383 -7.125000 0.000000 0.000000 99.617040 -7.334036 14.508935 -26.160111 36.488553 -7.993816 0.090683 -0.411486 -9.507308 7.125000 0.000000 0.000000 
-0.572217 18.075546 20.234025 -174.249277 4.419181 -154.768977 -32.278118 -26.735515 -22.358499 4.259353 12.945392 35.353864 3.022171 -8.859053 -46.714632 3.091300 -10.841500 -31.747000 21.607308 23.061335 -62.036570 -8.461333 -22.086214 58.720192 -3.135516 -1.500656 -38.408693 -2.183800 9.238900 -26.545600 3.148958 -2.922380 -4.838526 1.417266 -2.218740 16.650231 12.205498 -1.142707 16.158574 2.127800 0.429300 3.514400 -93.305859 0.036474 17.880692 20.466513 -21.948302 -3.618352 -0.300494 0.337402 -0.045768 -7.125000 0.000000 0.000000 99.576249 -7.642649 14.450226 -25.998178 36.301709 -7.898352 0.089463 -0.412318 -9.224444 7.125000 0.000000 0.000000 
-0.546017 18.059541 20.182034 -173.871382 4.226241 -154.860608 -31.867203 -26.760796 -22.083320 4.291766 12.973861 35.562570 3.032674 -8.996242 -46.926190 2.967900 -10.642900 -31.084900 20.723183 23.049225 -62.488856 -8.192693 -21.896699 57.695480 -3.133071 -2.225091 -37.608473 -2.129700 9.131100 -26.206300 3.086753 -2.932168 -4.543036 1.197154 -2.205142 17.250766 12.715169 -1.232346 16.338714 2.221100 0.433400 3.576900 -92.858245 -0.188642 18.185618 20.619327 -22.171681 -3.685366 -0.294708 0.335789 -0.365273 -7.125000 0.000000 0.000000 99.776049 -7.502393 14.136893 -25.866811 36.181389 -7.825486 0.091630 -0.414660 -8.790188 7.125000 0.000000 0.000000 
-0.517065 18.047103 20.136974 -173.489190 4.034429 -154.926148 -31.421571 -26.681304 -21.915557 4.342974 13.053969 35.927240 3.030257 -9.156924 -47.117658 3.003200 -10.700200 -31.275200 19.881470 22.990187 -62.847667 -7.883075 -21.662802 56.523294 -3.146468 -2.779014 -37.092291 -1.944100 8.748600 -25.012100 3.249788 -2.909124 -4.798308 1.268348 -2.185786 17.058129 13.209226 -1.495864 16.765162 2.337500 0.362600 3.628500 -92.655428 -0.046125 18.635114 20.853110 -22.491485 -3.796425 -0.284977 0.316194 -0.907471 -7.125000 0.000000 0.000000 99.731921 -8.091741 13.973648 -25.916311 36.201113 -7.846489 0.095172 -0.414705 -8.780985 7.125000 0.000000 0.000000 
-0.481486 18.042720 20.093138 -173.228680 3.526641 -155.364622 -31.172251 -26.673226 -21.376999 4.403572 13.105602 36.334292 2.947254 -9.535900 -47.177116 2.918300 -10.561600 -30.815400 19.227159 22.766579 -62.532759 -7.516694 -21.321603 55.005516 -3.241096 -3.707092 -36.702609 -1.863200 8.575100 -24.475000 3.348473 -3.037961 -4.710050 1.408570 -2.259729 16.904467 13.435079 -1.693715 17.055671 2.377000 0.302600 3.691500 -92.367390 -0.053507 18.992503 21.219335 -23.017958 -3.968251 -0.272615 0.289620 -1.951946 -7.125000 0.000000 0.000000 99.738664 -8.389094 13.936026 -25.794199 36.069583 -7.779142 0.096116 -0.419299 -8.913011 7.125000 0.000000 0.000000 
-0.442951 18.042516 20.030747 -173.345494 2.597012 -156.374505 -31.713231 -26.756859 -19.884814 4.452169 13.005950 36.517430 2.846740 -10.078795 -47.195031 2.875400 -10.490500 -30.580200 18.608254 22.026909 -61.274443 -7.108402 -20.836453 53.146560 -3.373939 -4.469861 -36.921072 -1.732100 8.284100 -23.580500 3.458493 -3.387333 -4.321345 1.835210 -2.491783 16.757509 13.402465 -1.714306 17.283605 2.387200 0.308400 3.752100 -92.230568 0.025252 19.611026 21.338233 -23.163918 -4.033289 -0.290754 0.289488 -1.735221 -7.125000 0.000000 0.000000 99.651089 -8.534284 13.701248 -25.550601 35.811809 -7.642044 0.098186 -0.427827 -8.877369 7.125000 0.000000 0.000000 
-0.410634 18.028141 19.983955 -173.146226 2.467685 -156.468980 -31.434306 -26.667960 -19.787177 4.511029 13.120327 36.975942 2.890410 -10.178841 -47.473785 2.938300 -10.594400 -30.924000 17.552029 21.961105 -61.598153 -6.804902 -20.554469 51.958474 -3.376967 -4.434523 -37.099219 -1.567300 7.899800 -22.410000 3.316196 -3.340865 -4.240899 1.778729 -2.468408 16.951052 13.823683 -1.908189 17.525408 2.458900 0.262000 3.817400 -91.801272 -0.003097 20.044084 21.542270 -23.441705 -4.130344 -0.297796 0.289782 -1.501356 -7.125000 0.000000 0.000000 99.869240 -8.569559 13.420310 -25.330148 35.594549 -7.524248 0.096883 -0.430910 -8.729861 7.125000 0.000000 0.000000 
-0.373832 18.016010 19.941545 -172.772855 2.172327 -156.524198 -30.786168 -26.696211 -19.974285 4.604232 13.340230 37.668561 2.989446 -10.068054 -47.782072 3.235900 -11.067500 -32.507800 16.728033 21.881252 -61.857584 -6.509953 -20.269314 50.750859 -3.401020 -4.598145 -37.147626 -1.423200 7.544000 -21.337400 3.377770 -3.375872 -4.307957 1.776634 -2.479454 16.916440 13.923354 -2.094338 17.727387 2.469000 0.193000 3.865800 -91.443197 0.094842 20.385807 21.926299 -23.979099 -4.316634 -0.295217 0.267626 -1.178758 -7.125000 0.000000 0.000000 99.972862 -8.819507 13.331642 -25.221630 35.482706 -7.466374 0.093868 -0.430503 -8.654797 7.125000 0.000000 0.000000 
-0.332035 18.002757 19.898423 -172.382120 1.779155 -156.606413 -30.143036 -26.763228 -20.040405 4.700657 13.527800 38.231574 3.144077 -9.713767 -48.033613 3.754400 -11.826200 -35.119800 15.977899 21.790927 -61.980407 -6.184502 -19.927945 49.317350 -3.482050 -5.261431 -36.882490 -1.381300 7.436800 -21.016200 3.538006 -3.446851 -4.355607 1.874216 -2.522464 16.910589 14.181641 -2.289764 17.912359 2.522000 0.126500 3.903600 -91.180698 0.084094 20.576169 22.223763 -24.396338 -4.461944 -0.292529 0.257710 -1.062632 -7.125000 0.000000 0.000000 100.034961 -9.110478 13.174684 -25.184492 35.438938 -7.446024 0.095012 -0.432311 -8.713537 7.125000 0.000000 0.000000 
